# xmcd
#
# Track frame offsets: 
#        150
#        22321
#        51990
#        70874
#        89232
#        106530
#        123044
#        141191
#        157188
#
# Disc length: 2276 seconds
#
# Revision: 1
# Processed by: cddbd v1.5.2PL0 Copyright (c) Steve Scherf et al.
# Submitted via: ExactAudioCopy v0.99pb5
#
DISCID=7f08e209
DTITLE=Krzysztof Sadowski - SWING and BLUES
DYEAR=1900
DGENRE=Blues
TTITLE0=BLUES DLA MARYSI
TTITLE1=BLUES DLA OLENKI
TTITLE2=BLUES DLA ELZBIETY
TTITLE3=BLUES DLA LILIANY
TTITLE4=SMOKE GETS IN YOUR EYES
TTITLE5=BASIN STREET BLUES
TTITLE6=MOONLIGHT IN VERMOUNT
TTITLE7=CZASTULKI DLA ANULKI
TTITLE8=PIERWSZE WIECZORNE SPOTKANIE
EXTD=
EXTT0=
EXTT1=
EXTT2=
EXTT3=
EXTT4=
EXTT5=
EXTT6=
EXTT7=
EXTT8=
PLAYORDER=
